<?xml version="1.0" encoding="UTF-8" standalone="no"?>
<!-- Created with Inkscape (http://www.inkscape.org/) -->

<svg
   width="50"
   height="50"
   viewBox="0 0 13.229166 13.229166"
   version="1.1"
   id="svg1"
   xmlns="http://www.w3.org/2000/svg"
   xmlns:svg="http://www.w3.org/2000/svg">
  <defs
     id="defs1" />
  <g
     id="layer1">
    <path
       d="M 3.2449708,2.6016837 C 3.311418,2.5921337 3.378658,2.5925137 3.4456406,2.5911657 4.3731143,2.5724762 5.2354435,2.8327039 5.9123718,3.4836117 5.6513051,3.7435134 5.399619,4.0125624 5.1576853,4.2902468 4.8879849,3.985123 4.4845512,3.7896901 4.089845,3.7079042 3.4719869,3.5798971 2.8186355,3.6788807 2.2896607,4.0300175 1.7850317,4.365002 1.4649887,4.8973516 1.3485707,5.4868615 1.2175369,6.150337 1.3327617,6.904256 1.7154641,7.4684906 2.0450958,7.9544776 2.5429054,8.2623485 3.1176597,8.3694558 3.805014,8.4975566 4.4267823,8.3335908 4.9961615,7.9414443 L 5.1261006,7.8185565 C 5.37646,8.0923307 5.630032,8.3580511 5.9102761,8.6016372 5.3982924,9.0955843 4.7534349,9.3637023 4.0498585,9.438645 3.0617085,9.5443097 2.0618756,9.3222747 1.2856603,8.6830498 0.60088946,8.1190949 0.19591936,7.2984029 0.11304036,6.4198039 0.02501826,5.4869298 0.26699806,4.5164923 0.87180056,3.7884778 1.4766493,3.0604172 2.3155414,2.6909404 3.2449708,2.6016837 Z"
       fill="#7eb1b1"
       id="path3"
       style="mix-blend-mode:normal;stroke-width:0.158884" />
    <path
       d="m 8.8861073,2.6025925 c 0.7908549,-0.054509 1.6296547,0.1534922 2.2822607,0.6074544 0.731505,0.5087949 1.196988,1.2859651 1.348736,2.1588141 0.197597,1.1353822 -0.104966,2.0796356 -0.750359,3.0049928 0.398687,0.4341318 0.861377,0.8232055 1.301956,1.2144432 C 12.744725,9.599006 12.419585,9.598767 12.09561,9.603661 11.361543,9.0830181 10.611419,8.6009413 9.9297189,8.0105941 9.6788244,7.7796679 9.4228087,7.5546077 9.1614401,7.335574 c 0.5094702,0.00806 1.0201049,0.00428 1.5298079,0.0061 l 0.214123,0.2225943 C 11.135552,7.2348475 11.284041,6.8554784 11.338735,6.4574214 11.432764,5.7860557 11.304056,5.0582748 10.887217,4.5113317 10.537407,4.0487818 10.01467,3.7480797 9.4388687,3.6780482 8.7576344,3.5937487 8.143197,3.7767076 7.6076604,4.198993 L 7.6609583,3.9585019 6.3080328,3.9474753 C 6.3517883,3.8941537 6.3964744,3.841531 6.4418598,3.7896535 7.0937685,3.0439504 7.901381,2.666863 8.8861085,2.6026037 Z"
       fill="#fefefe"
       id="path4"
       style="mix-blend-mode:normal;stroke-width:0.158884" />
    <path
       d="m 6.9178148,6.51751 c 0.055858,0.1409721 0.089373,0.2915551 0.1429025,0.4338538 0.1754866,0.4669256 0.4603621,0.8561851 0.8872092,1.1215576 0.5269263,0.327536 1.1471808,0.4059011 1.7467225,0.264999 0.1147417,0.1115768 0.2297157,0.2013911 0.361447,0.292556 0.01025,0.2384208 0.02514,0.4765143 0.04446,0.7141439 -0.1575664,0.035843 -0.3158299,0.062141 -0.4754915,0.087511 -0.3030295,0.029791 -0.60536,0.037006 -0.908156,4.766e-4 C 7.7724379,9.3185647 6.9932215,8.9101039 6.4041533,8.1616775 6.5950008,7.6223927 6.7493081,7.0644881 6.9178132,6.5175228 Z"
       fill="#fefefe"
       id="path7"
       style="mix-blend-mode:normal;stroke-width:0.158884" />
    <path
       d="m 10.453853,8.9589657 c 0.226922,0.1063622 0.451052,0.2953492 0.65889,0.4389508 l 1.543539,1.0808495 c -0.287669,0.0917 -0.579759,0.169902 -0.870685,0.251129 0.204114,0.394496 0.438951,0.778053 0.674019,1.154861 -0.169202,0.09426 -0.337008,0.191081 -0.502954,0.290694 -0.217148,-0.38705 -0.437089,-0.772701 -0.660055,-1.156492 l -0.633289,0.620488 C 10.637484,10.748978 10.526932,9.8473378 10.453851,8.9589642 Z"
       fill="#fefefe"
       id="path12"
       style="mix-blend-mode:normal;stroke-width:0.158884" />
    <path
       d="m 6.6008208,4.401053 0.5360038,0.0033 C 6.778403,5.5160232 6.4281274,6.6390457 6.0955404,7.7586252 L 5.538497,7.7581485 C 5.702323,7.3539697 5.816577,6.9233064 5.9437928,6.5062563 6.1544231,5.8019108 6.3732009,5.1001504 6.6008208,4.4011118 Z"
       fill="#fefefe"
       id="path19"
       style="mix-blend-mode:normal;stroke-width:0.158884" />
    <path
       d="M 7.6653784,5.1057019 C 8.1892783,5.3421668 8.7020074,5.614009 9.2159009,5.8716532 L 9.2121777,6.3113952 8.0105398,6.9201763 7.6509549,7.0990614 7.6490959,6.6376047 8.769047,6.077536 C 8.3917736,5.9256963 8.0247406,5.7276799 7.6584066,5.5502835 7.6567672,5.4020504 7.6590431,5.2538174 7.6653815,5.1057019 Z"
       fill="#fefefe"
       id="path23"
       style="mix-blend-mode:normal;stroke-width:0.158884" />
    <path
       d="m 5.0623306,5.1053523 0.017199,0.013664 c 0.042592,0.1113432 0.017643,0.3151081 0.017245,0.4369711 l -1.098818,0.5272287 1.105917,0.5540166 -0.00159,0.4584301 -0.270166,-0.1335235 C 4.396475,6.7546963 3.9729552,6.5193483 3.5386596,6.3081127 l 6.366e-4,-0.4356221 z"
       fill="#fefefe"
       id="path24"
       style="mix-blend-mode:normal;stroke-width:0.158884" />
    <path
       d="M 6.2461233,4.0765198 C 6.2707934,4.2074361 5.7959315,5.5202368 5.7137039,5.7408991 5.6467912,5.2675498 5.9740476,4.4574936 6.2461233,4.0765198 Z"
       fill="#fefefe"
       id="path27"
       style="mix-blend-mode:normal;stroke-width:0.158884" />
  </g>
</svg>
