<?xml version="1.0" encoding="UTF-8" standalone="no"?>
<!-- Created with Inkscape (http://www.inkscape.org/) -->

<svg
   width="50"
   height="50"
   viewBox="0 0 13.229166 13.229167"
   version="1.1"
   id="svg1"
   xml:space="preserve"
   xmlns="http://www.w3.org/2000/svg"
   xmlns:svg="http://www.w3.org/2000/svg"><defs
     id="defs1"><clipPath
       id="clip-1"><rect
         x="0"
         y="0"
         transform="scale(0.14648)"
         width="2048"
         height="2048"
         fill="none"
         id="rect1" /></clipPath></defs><g
     id="layer1"
     transform="matrix(1.2591915,0,0,1.2591915,-1.5838106,-2.4463948)"><svg
       version="1.1"
       id="svg25"
       width="100%"
       height="100%"><defs
         id="defs1-3" /><g
         clip-path="url(#clip-1)"
         fill="none"
         fill-rule="nonzero"
         stroke="none"
         stroke-width="1"
         stroke-linecap="butt"
         stroke-linejoin="miter"
         stroke-miterlimit="10"
         stroke-dasharray="none"
         stroke-dashoffset="0"
         font-family="none"
         font-weight="none"
         font-size="none"
         text-anchor="none"
         style="mix-blend-mode:normal"
         id="g25"
         transform="matrix(0.13013611,0,0,0.13013611,-12.949777,-10.240546)"><path
           d="m 130.45884,107.28516 c 0.97485,-0.11528 2.04917,-0.0902 3.03398,-0.0561 4.76221,0.16494 10.20176,1.98838 13.49253,5.56685 l -4.58452,4.92319 c -2.09458,-1.83809 -4.53354,-3.10752 -7.2835,-3.62607 -3.78647,-0.71382 -7.74434,0.002 -10.93037,2.20825 -3.18267,2.204 -5.17852,5.44292 -5.84678,9.24126 -0.76143,4.32744 -0.12568,8.97861 2.46167,12.60776 2.10249,2.94902 5.42827,4.93828 8.98682,5.53374 4.20703,0.70415 8.01108,-0.32432 11.45098,-2.78379 l 0.87422,-0.77329 c 1.62349,1.66113 3.26309,3.30615 4.91836,4.93491 -3.37134,3.12173 -7.53853,4.87368 -12.10078,5.31313 -6.02183,0.58154 -12.19058,-0.90527 -16.90605,-4.80161 -4.3188,-3.56851 -6.86045,-8.77192 -7.37036,-14.31958 -0.54741,-5.9543 1.00664,-11.92969 4.85552,-16.55684 3.7834,-4.54849 9.12656,-6.88901 14.94829,-7.41182 z"
           fill="#8b4689"
           id="path2" /><path
           d="m 141.65186,123.0334 c 0.43638,0.46362 0.21885,2.12373 0.20317,2.77588 l -6.86294,3.36299 6.95376,3.58169 -0.0242,2.80503 -1.81479,-0.96431 -7.92422,-4.10288 c 0.007,-0.85869 -0.0173,-1.72017 -0.0283,-2.579 3.22046,-1.47686 6.31597,-3.30542 9.49746,-4.87939 z"
           fill="#8b4689"
           id="path22" /><path
           d="m 165.55664,107.28633 c 5.44336,-0.35493 10.65234,0.99595 15.08936,4.19663 4.33154,3.1251 7.25244,8.34727 8.04639,13.59697 1.0415,6.89209 -0.73975,13.0207 -4.85449,18.56807 2.58398,2.67202 5.48291,5.01313 8.19287,7.55464 l -6.01465,0.0923 c -4.59521,-2.91064 -9.05859,-6.22354 -13.24805,-9.68569 -1.72705,-1.51406 -3.46729,-3.01216 -5.2207,-4.49443 l 9.47461,-0.005 c 0.49365,0.47109 0.9668,0.96606 1.44727,1.45195 1.68604,-2.33159 2.66748,-4.93711 2.96924,-7.80103 0.44238,-4.20557 -0.55664,-8.44438 -3.26074,-11.75391 -2.41113,-2.95342 -5.91943,-4.80132 -9.71777,-5.12021 -4.04004,-0.37368 -7.58496,0.98818 -10.68018,3.52983 l 0.3501,-1.6522 c -2.83154,-0.0438 -5.66309,-0.029 -8.49316,0.0441 0.19629,-0.24448 0.39697,-0.48545 0.60205,-0.7229 4.09717,-4.77144 9.03076,-7.31792 15.31787,-7.79883 z"
           fill="#8b4689"
           id="path3" /><path
           d="m 153.36768,132.06313 c 0.35889,0.80991 0.54932,1.74082 0.85693,2.5793 1.09717,2.98271 2.96924,5.45815 5.70117,7.12192 3.28564,2.00845 7.24072,2.6105 10.97461,1.67036 l 2.28955,1.9812 c -0.0117,1.43906 0.0527,2.87607 0.1084,4.31309 -0.83203,0.2168 -1.68311,0.35742 -2.52832,0.51709 -2.28809,0.26807 -4.59521,0.34277 -6.87891,-0.0176 -5.38184,-0.84814 -10.44434,-3.5332 -13.66553,-7.98208 1.18945,-3.34497 2.15039,-6.77563 3.14209,-10.1833 z"
           fill="#8b4689"
           id="path6" /><path
           d="m 175.70947,147.31201 c 2.05518,1.01953 3.97266,2.61768 5.8418,3.95068 2.65137,1.89551 5.33203,3.75146 8.04053,5.56494 l -5.56348,1.63623 c 1.33447,2.44336 2.69531,4.9248 4.22168,7.25537 l -3.04395,1.72852 c -1.48975,-2.34082 -2.79199,-4.85156 -4.16162,-7.26855 -1.3916,1.21875 -2.69238,2.56641 -4.01367,3.86279 -0.39258,-5.57666 -1.02832,-11.15039 -1.32129,-16.72998 z"
           fill="#8b4689"
           id="path11" /><path
           d="m 151.41504,118.61411 3.31055,-0.0267 c -1.22461,4.26211 -2.59863,8.48789 -3.91699,12.72217 -0.87158,2.80181 -1.65674,5.64888 -2.61328,8.4208 l -3.40342,0.0114 c 1.34458,-3.79497 2.46152,-7.68574 3.64805,-11.53359 0.98584,-3.19614 2.0625,-6.37778 2.9751,-9.59414 z"
           fill="#8b4689"
           id="path18" /><path
           d="m 149.03174,116.73838 c 0.0864,1.27134 -2.52393,8.56113 -3.18677,10.15444 -0.0581,-0.59443 0.0869,-1.25171 0.16406,-1.84805 0.39551,-3.05566 1.38647,-5.7019 3.02271,-8.3064 z"
           fill="#8b4689"
           id="path25" /><path
           d="m 158.1167,122.97173 c 3.29443,1.39131 6.52148,3.31846 9.70313,4.97109 -0.0937,0.8436 -0.0527,1.72983 -0.0586,2.58003 -2.53564,1.47334 -5.23975,2.72651 -7.83105,4.10947 l -1.86475,1.02949 -0.007,-2.86348 c 2.20898,-1.31953 4.56299,-2.44761 6.87158,-3.58257 -2.13867,-1.27222 -4.53369,-2.43062 -6.84668,-3.3397 z"
           fill="#8b4689"
           id="path21" /><path
           d="m 191.65137,180.06738 c -92.141887,-101.376339 -92.141887,-101.376339 0,0 z"
           fill="#2e333a"
           id="path24" /></g></svg></g></svg>
